<svg width="24" height="29" viewBox="0 0 24 29" fill="none" xmlns="http://www.w3.org/2000/svg">
<path d="M12 24.1667C12.5523 24.1667 13 23.6257 13 22.9583C13 22.291 12.5523 21.75 12 21.75C11.4477 21.75 11 22.291 11 22.9583C11 23.6257 11.4477 24.1667 12 24.1667Z" stroke="white" stroke-width="2" stroke-linecap="round" stroke-linejoin="round"/>
<path d="M12 24.1667C12.5523 24.1667 13 23.6257 13 22.9583C13 22.291 12.5523 21.75 12 21.75C11.4477 21.75 11 22.291 11 22.9583C11 23.6257 11.4477 24.1667 12 24.1667Z" stroke="#003585" stroke-width="2" stroke-linecap="round" stroke-linejoin="round"/>
<path d="M12 15.7084C12.5523 15.7084 13 15.1674 13 14.5001C13 13.8327 12.5523 13.2917 12 13.2917C11.4477 13.2917 11 13.8327 11 14.5001C11 15.1674 11.4477 15.7084 12 15.7084Z" stroke="white" stroke-width="2" stroke-linecap="round" stroke-linejoin="round"/>
<path d="M12 15.7084C12.5523 15.7084 13 15.1674 13 14.5001C13 13.8327 12.5523 13.2917 12 13.2917C11.4477 13.2917 11 13.8327 11 14.5001C11 15.1674 11.4477 15.7084 12 15.7084Z" stroke="#003585" stroke-width="2" stroke-linecap="round" stroke-linejoin="round"/>
<path d="M12 7.24992C12.5523 7.24992 13 6.70893 13 6.04159C13 5.37424 12.5523 4.83325 12 4.83325C11.4477 4.83325 11 5.37424 11 6.04159C11 6.70893 11.4477 7.24992 12 7.24992Z" stroke="white" stroke-width="2" stroke-linecap="round" stroke-linejoin="round"/>
<path d="M12 7.24992C12.5523 7.24992 13 6.70893 13 6.04159C13 5.37424 12.5523 4.83325 12 4.83325C11.4477 4.83325 11 5.37424 11 6.04159C11 6.70893 11.4477 7.24992 12 7.24992Z" stroke="#003585" stroke-width="2" stroke-linecap="round" stroke-linejoin="round"/>
</svg>
